<svg width="286" height="56" viewBox="0 0 286 56" fill="none" xmlns="http://www.w3.org/2000/svg">
<path d="M21.36 44.64C14.576 44.64 9.43467 42.784 5.936 39.072C2.48 35.36 0.752 30.3467 0.752 24.032C0.752 19.5093 1.47733 15.6267 2.928 12.384C4.42133 9.09866 6.68267 6.58133 9.712 4.832C12.7413 3.04 16.6027 2.144 21.296 2.144C23.6853 2.144 25.8613 2.336 27.824 2.72C29.8293 3.06133 31.6853 3.53067 33.392 4.128V10.208C31.6853 9.52533 29.8507 9.01333 27.888 8.672C25.968 8.288 23.9413 8.096 21.808 8.096C16.688 8.096 13.0613 9.46133 10.928 12.192C8.83733 14.9227 7.792 18.8693 7.792 24.032C7.792 28.8533 8.944 32.5227 11.248 35.04C13.552 37.5147 17.1147 38.752 21.936 38.752C23.8987 38.752 25.8613 38.6027 27.824 38.304C29.8293 37.9627 31.7067 37.4507 33.456 36.768V42.912C31.7493 43.4667 29.8933 43.8933 27.888 44.192C25.9253 44.4907 23.7493 44.64 21.36 44.64ZM50.9075 44V8.224H37.7235V2.784H71.0035V8.224H57.8835V44H50.9075Z" fill="#C82E2E"/>
<path d="M74.9305 44L90.6745 2.784H100.147L115.827 44H106.867L102.963 34.08H87.7945L83.9545 44H74.9305ZM89.0745 27.424H101.683L95.3465 10.848L89.0745 27.424ZM139.692 44.64C137.558 44.64 135.702 44.3627 134.124 43.808C132.545 43.2107 131.094 42.336 129.772 41.184L129.324 44H121.836V0.863998H130.476V15.328C131.713 14.56 133.1 13.984 134.635 13.6C136.172 13.216 137.772 13.024 139.436 13.024C143.788 13.024 147.222 14.2613 149.74 16.736C152.3 19.168 153.58 23.1147 153.58 28.576C153.58 34.0373 152.321 38.0907 149.804 40.736C147.329 43.3387 143.958 44.64 139.692 44.64ZM137.26 38.304C140.033 38.304 141.974 37.4933 143.084 35.872C144.236 34.2507 144.812 31.8187 144.812 28.576C144.812 25.2053 144.193 22.8373 142.956 21.472C141.761 20.064 139.841 19.36 137.196 19.36C135.873 19.36 134.614 19.552 133.42 19.936C132.268 20.32 131.286 20.8747 130.476 21.6V35.552C131.329 36.448 132.332 37.1307 133.484 37.6C134.678 38.0693 135.937 38.304 137.26 38.304ZM160.448 8.096V1.312H169.856V8.096H160.448ZM161.152 44V20.064H156.608L157.376 13.664H169.792V44H161.152ZM185.596 44.64C182.652 44.64 180.497 43.9573 179.132 42.592C177.809 41.2267 177.148 39.0507 177.148 36.064V0.863998H185.788V35.36C185.788 36.4267 186.001 37.1733 186.428 37.6C186.855 37.984 187.473 38.176 188.284 38.176C189.393 38.176 190.396 38.0267 191.292 37.728V43.68C189.671 44.32 187.772 44.64 185.596 44.64ZM203.034 44.64C200.09 44.64 197.935 43.9573 196.57 42.592C195.247 41.2267 194.586 39.0507 194.586 36.064V0.863998H203.226V35.36C203.226 36.4267 203.439 37.1733 203.866 37.6C204.292 37.984 204.911 38.176 205.722 38.176C206.831 38.176 207.834 38.0267 208.73 37.728V43.68C207.108 44.32 205.21 44.64 203.034 44.64ZM213.51 8.096V1.312H222.918V8.096H213.51ZM214.214 44V20.064H209.67L210.438 13.664H222.854V44H214.214ZM242.243 44.64C238.744 44.64 236.141 43.7227 234.435 41.888C232.771 40.0533 231.939 37.5573 231.939 34.4V20.32H227.651V13.664H231.939V7.136L240.579 4.576V13.664H248.259L247.747 20.32H240.579V33.824C240.579 35.488 240.963 36.64 241.731 37.28C242.499 37.8773 243.693 38.176 245.315 38.176C246.509 38.176 247.747 37.9627 249.027 37.536V43.488C248.088 43.872 247.064 44.1493 245.955 44.32C244.845 44.5333 243.608 44.64 242.243 44.64ZM258.522 55.264C257.199 55.264 256.026 55.1787 255.002 55.008C253.978 54.88 252.975 54.624 251.994 54.24V48.16C252.719 48.416 253.38 48.5867 253.978 48.672C254.618 48.7573 255.258 48.8 255.898 48.8C257.647 48.8 258.991 48.3947 259.93 47.584C260.911 46.7733 261.892 45.408 262.874 43.488L249.306 13.664H258.33L267.226 34.272L276.058 13.664H285.018L273.05 41.888C271.94 44.5333 270.724 46.8587 269.402 48.864C268.122 50.912 266.607 52.4907 264.858 53.6C263.108 54.7093 260.996 55.264 258.522 55.264Z" fill="black"/>
</svg>
